<?xml version="1.0" standalone="no"?>
<!DOCTYPE svg PUBLIC "-//W3C//DTD SVG 20010904//EN"
 "http://www.w3.org/TR/2001/REC-SVG-20010904/DTD/svg10.dtd">
<svg version="1.0" xmlns="http://www.w3.org/2000/svg"
 width="1000.000000pt" height="1080.000000pt" viewBox="0 0 1000.000000 1080.000000"
 preserveAspectRatio="xMidYMid meet">
<metadata>
Created by potrace 1.16, written by Peter Selinger 2001-2019
</metadata>
<g transform="translate(0.000000,1080.000000) scale(0.100000,-0.100000)"
fill="#000000" stroke="none">
<path d="M4171 6886 c-20 -22 -22 -32 -18 -98 2 -40 12 -98 21 -128 10 -30 21
-68 26 -85 5 -16 75 -228 155 -470 178 -532 183 -548 220 -705 7 -30 20 -80
28 -110 8 -30 22 -89 31 -130 9 -41 24 -104 32 -140 8 -36 19 -85 24 -110 41
-194 66 -287 81 -295 15 -10 218 -34 346 -41 93 -5 126 -4 138 6 17 14 20 76
6 112 -5 13 -14 43 -21 68 -12 42 -26 89 -55 185 -7 22 -18 58 -24 80 -5 22
-21 78 -35 125 -14 47 -37 130 -51 185 -15 55 -30 111 -35 125 -5 14 -16 52
-26 85 -9 33 -23 80 -31 105 -8 25 -21 68 -28 95 -8 28 -33 102 -55 165 -69
196 -79 228 -73 249 7 29 16 27 55 -15 18 -20 40 -44 49 -53 9 -9 38 -43 64
-76 46 -58 95 -112 180 -200 22 -23 55 -59 73 -81 18 -21 58 -65 89 -96 47
-50 60 -58 91 -58 29 0 47 9 82 41 25 23 71 65 104 95 41 38 67 54 86 54 37 0
45 -13 59 -90 27 -156 33 -188 41 -245 5 -33 16 -105 25 -160 9 -55 20 -125
25 -155 16 -102 30 -185 40 -240 5 -30 17 -100 26 -155 20 -122 33 -150 78
-165 25 -8 276 -26 412 -30 23 0 22 29 -1 98 -36 107 -43 157 -77 547 -38 441
-59 551 -159 840 -69 200 -93 249 -144 293 -34 30 -39 32 -93 26 -31 -4 -64
-11 -73 -15 -9 -5 -55 -13 -103 -18 -47 -6 -94 -15 -105 -21 -11 -5 -48 -13
-83 -16 -35 -3 -84 -12 -110 -21 -29 -9 -53 -11 -63 -6 -8 5 -124 115 -258
245 -290 283 -328 319 -396 381 l-53 47 -247 0 -248 0 -22 -24z"/>
<path d="M3620 6870 c-98 -10 -141 -30 -156 -71 -16 -43 -17 -151 -3 -221 44
-218 97 -373 131 -384 20 -6 97 -2 283 16 55 5 130 12 168 16 52 4 67 9 67 22
0 20 -41 144 -52 156 -4 6 -8 18 -8 27 0 9 -9 36 -19 60 -30 68 -73 236 -80
314 l-6 70 -130 1 c-71 1 -159 -2 -195 -6z"/>
<path d="M3194 6659 c-27 -23 -71 -63 -99 -90 -27 -26 -66 -60 -85 -75 -19
-16 -53 -45 -75 -65 -61 -56 -157 -129 -169 -129 -3 0 -24 -13 -48 -29 -24
-16 -70 -41 -103 -56 -33 -15 -69 -32 -79 -37 -30 -16 -127 -49 -174 -58 -23
-5 -50 -14 -60 -19 -10 -5 -47 -13 -82 -16 -36 -4 -81 -11 -100 -16 -19 -6
-95 -14 -169 -19 -176 -12 -176 -12 -167 -140 10 -150 28 -264 81 -500 15 -63
29 -128 32 -145 3 -16 17 -48 31 -70 30 -49 125 -142 155 -151 12 -4 33 -15
46 -25 13 -11 32 -19 41 -19 10 0 23 -7 30 -15 9 -11 27 -15 54 -13 l41 3 6
145 c9 196 21 245 101 408 62 127 144 223 258 300 30 20 61 40 70 45 8 4 29
16 45 27 17 11 41 25 55 32 14 7 36 20 49 30 14 11 41 18 67 18 38 0 47 -5 79
-42 29 -34 145 -253 145 -275 0 -3 6 -19 14 -36 13 -28 34 -89 76 -222 26 -82
53 -331 45 -418 -10 -110 -57 -210 -127 -269 -46 -38 -52 -40 -115 -40 -57 0
-72 5 -107 30 -90 65 -142 204 -134 357 7 125 36 186 128 274 76 73 87 105 52
147 -39 47 -72 59 -167 59 -78 0 -95 -3 -129 -24 -50 -32 -75 -56 -116 -116
-41 -58 -51 -79 -76 -160 -27 -85 -27 -365 0 -479 25 -106 74 -228 119 -299
21 -32 35 -62 32 -68 -4 -5 -66 -10 -138 -10 -73 -1 -145 -5 -162 -9 l-30 -7
35 -6 c19 -3 71 -9 115 -12 157 -12 292 -41 274 -59 -2 -3 -150 -6 -327 -8
-219 -3 -325 -7 -333 -15 -14 -14 37 -18 606 -54 94 -5 205 -17 247 -26 72
-15 83 -15 160 2 102 21 178 56 241 109 102 85 212 270 247 416 5 19 13 53 18
75 19 76 32 172 32 238 0 57 -29 285 -46 366 -30 142 -66 274 -114 421 -109
334 -119 366 -143 465 -34 136 -45 193 -60 310 -15 119 -23 125 -93 64z"/>
<path d="M6257 6363 c-14 -14 -6 -44 36 -130 69 -145 87 -193 109 -293 25
-121 37 -214 37 -306 1 -104 13 -141 41 -129 47 20 148 176 172 265 29 109 37
302 17 435 -6 39 -13 86 -16 105 -9 60 -9 60 -208 60 -100 0 -185 -3 -188 -7z"/>
<path d="M6829 6341 c-43 -34 -56 -127 -39 -276 17 -151 48 -263 105 -376 35
-68 108 -165 148 -198 18 -14 40 -33 48 -41 9 -8 33 -24 55 -34 21 -10 50 -25
64 -31 14 -7 40 -16 59 -20 159 -34 238 -157 229 -359 -11 -243 -164 -384
-327 -301 -55 27 -80 57 -118 142 -36 80 -44 231 -17 333 18 69 18 72 0 105
-24 43 -46 51 -88 29 -87 -45 -185 -193 -204 -309 -17 -100 -8 -302 16 -360 4
-11 16 -42 26 -70 9 -27 28 -67 41 -88 13 -21 22 -49 21 -63 -3 -21 5 -30 42
-50 84 -45 69 -49 -232 -54 -347 -6 -380 -18 -113 -40 72 -6 155 -15 185 -20
30 -5 108 -11 173 -14 66 -3 144 -13 175 -23 38 -11 95 -17 172 -17 100 -1
123 2 175 24 79 32 159 95 222 176 137 174 212 476 184 736 -7 61 -16 119 -21
129 -6 10 -10 25 -10 33 0 9 -16 50 -36 90 -63 131 -180 238 -339 310 -33 15
-72 34 -87 42 -14 8 -34 14 -45 15 -10 0 -40 12 -68 27 -116 63 -159 222 -60
222 19 0 54 -6 77 -14 24 -8 63 -16 88 -19 25 -4 59 -13 75 -21 17 -9 40 -16
52 -16 30 0 164 -73 235 -127 70 -54 180 -175 223 -245 76 -127 134 -362 135
-549 0 -36 3 -68 6 -71 6 -7 94 27 177 67 66 33 76 48 101 150 9 39 21 85 27
102 6 18 14 54 19 80 4 27 20 93 35 148 40 148 41 166 13 195 -35 38 -169 140
-184 140 -2 0 -26 15 -52 33 -113 80 -384 225 -637 342 -119 55 -347 115 -520
136 -184 22 -178 22 -206 0z"/>
<path d="M3930 6079 c-58 -5 -127 -13 -153 -19 -26 -5 -70 -10 -98 -10 -35 0
-51 -4 -55 -15 -6 -14 12 -94 51 -225 9 -30 20 -71 25 -90 5 -19 18 -73 30
-120 32 -129 66 -276 85 -365 9 -44 20 -98 25 -120 5 -22 16 -80 25 -130 9
-49 21 -106 26 -126 5 -20 9 -51 9 -69 0 -39 28 -150 42 -167 8 -10 81 -13
305 -13 246 0 295 2 299 14 5 13 -7 80 -36 196 -5 19 -16 71 -25 115 -9 44
-21 96 -26 115 -23 96 -51 209 -59 240 -14 58 -58 221 -75 280 -9 30 -20 71
-25 90 -23 96 -112 376 -131 413 -11 19 -56 21 -239 6z"/>
<path d="M3697 4133 c-3 -5 -15 -49 -27 -98 -11 -50 -26 -107 -32 -128 -10
-32 -9 -40 3 -48 20 -12 23 -12 49 11 13 11 30 20 39 20 9 0 24 -9 34 -20 19
-22 26 -24 45 -11 11 6 11 17 3 47 -5 21 -17 75 -26 119 -9 44 -20 87 -24 95
-9 17 -56 26 -64 13z"/>
<path d="M3905 4130 c-4 -6 -7 -58 -8 -115 0 -80 3 -109 16 -128 33 -51 93
-43 121 17 13 27 16 58 14 133 -3 92 -4 98 -25 101 -25 4 -32 -19 -36 -133 -2
-57 -5 -70 -19 -73 -15 -3 -18 9 -20 100 -3 86 -6 103 -20 106 -9 2 -19 -2
-23 -8z"/>
<path d="M4157 4134 c-16 -16 -7 -63 13 -69 18 -6 20 -15 20 -105 0 -92 1 -99
21 -105 32 -10 39 9 39 113 0 86 2 94 21 99 16 4 19 12 17 37 -3 31 -4 31 -63
34 -34 2 -64 0 -68 -4z"/>
<path d="M4409 4112 c-26 -23 -34 -39 -39 -82 -12 -93 22 -163 85 -175 24 -5
36 0 61 23 57 52 56 184 -1 236 -36 34 -67 33 -106 -2z"/>
<path d="M4844 4132 c-40 -28 -56 -93 -29 -128 19 -25 19 -58 0 -74 -8 -7 -15
-18 -15 -25 0 -17 31 -42 62 -50 22 -6 33 -1 57 24 20 20 31 42 31 59 -1 33
-41 100 -57 95 -14 -5 -26 14 -18 27 5 8 12 7 22 -2 12 -10 18 -9 29 7 18 24
18 27 -6 53 -21 22 -55 28 -76 14z"/>
<path d="M5054 4128 c-11 -18 -13 -240 -2 -260 13 -27 113 -26 128 1 16 31 2
50 -38 53 -26 2 -38 8 -40 21 -3 14 4 17 32 17 30 0 37 4 42 26 8 31 -2 41
-41 46 -43 4 -39 32 5 38 31 4 35 8 35 35 0 29 -1 30 -57 33 -37 2 -59 -1 -64
-10z"/>
<path d="M5278 4098 c-3 -76 2 -230 8 -239 10 -17 35 -9 44 16 12 32 24 32 48
-2 26 -35 58 -26 47 15 -9 37 -8 59 6 118 11 45 10 55 -7 90 -19 39 -20 39
-81 42 l-63 3 -2 -43z"/>
<path d="M5535 4129 c-4 -6 -3 -29 3 -52 6 -23 18 -78 28 -122 19 -89 27 -105
55 -105 24 0 34 26 61 156 22 103 20 134 -7 134 -16 0 -26 -19 -44 -88 -14
-51 -31 -46 -31 9 0 22 -5 49 -10 60 -12 21 -45 26 -55 8z"/>
<path d="M5796 4125 c-3 -9 -6 -70 -6 -135 0 -123 9 -150 45 -136 13 5 15 27
13 143 -3 132 -4 138 -24 141 -13 2 -24 -4 -28 -13z"/>
<path d="M5980 4110 c-52 -56 -51 -180 2 -233 23 -23 34 -28 56 -22 57 14 78
57 45 90 -15 16 -18 16 -28 1 -15 -20 -41 -21 -49 0 -12 31 -6 93 10 109 15
15 18 15 35 -1 15 -14 21 -14 34 -4 23 19 18 46 -11 69 -37 29 -61 26 -94 -9z"/>
<path d="M6207 4133 c-13 -12 -8 -258 5 -271 7 -7 36 -12 65 -12 43 0 54 4 63
21 17 31 5 47 -37 51 -27 2 -39 8 -41 21 -3 13 3 17 28 17 23 0 33 6 39 23 12
32 3 45 -32 49 -44 4 -43 31 2 38 41 6 61 31 42 54 -14 16 -120 24 -134 9z"/>
</g>
</svg>
